<?xml version="1.0" encoding="UTF-8" standalone="no"?>
<svg
   width="18.5"
   height="20.5"
   fill="currentColor"
   class="bi bi-cart3"
   viewBox="0 0 18.5 20.5"
   version="1.1"
   id="svg1"
   sodipodi:docname="cart_white.svg"
   inkscape:version="1.3.2 (091e20e, 2023-11-25, custom)"
   xml:space="preserve"
   xmlns:inkscape="http://www.inkscape.org/namespaces/inkscape"
   xmlns:sodipodi="http://sodipodi.sourceforge.net/DTD/sodipodi-0.dtd"
   xmlns="http://www.w3.org/2000/svg"
   xmlns:svg="http://www.w3.org/2000/svg"><defs
     id="defs1" /><sodipodi:namedview
     id="namedview1"
     pagecolor="#727272"
     bordercolor="#000000"
     borderopacity="0.25"
     inkscape:showpageshadow="2"
     inkscape:pageopacity="0.0"
     inkscape:pagecheckerboard="0"
     inkscape:deskcolor="#d1d1d1"
     inkscape:zoom="26.90625"
     inkscape:cx="7.6747967"
     inkscape:cy="5.4819977"
     inkscape:window-width="1920"
     inkscape:window-height="1057"
     inkscape:window-x="-8"
     inkscape:window-y="-8"
     inkscape:window-maximized="1"
     inkscape:current-layer="svg1" /><path
     d="M 17.963159,2.5508692 C 17.909789,2.5203522 17.66131,2.1374825 17.66131,2.1374825 l -0.13263,-0.1891493 -0.184572,0.1295796 0.07307,0.4865255 0.0029,0.3812742 c 0,0 -0.676351,0.4722927 -0.973199,0.6616103 C 15.983178,3.9030584 15.55465,3.8251551 15.55465,3.8251551 L 15.425053,3.6604153 13.927129,4.645195 c 0,0 -0.03353,-0.070168 -0.07624,-0.054924 -0.04271,0.015239 -1.815207,1.2027772 -1.815207,1.2027772 l -0.06709,-0.041197 c 0,0 -0.297451,0.1981766 -0.367621,0.251535 -0.07017,0.053358 -0.09309,0.2073864 -0.146482,0.2561736 -0.05339,0.048788 -0.202879,0.1417756 -0.202879,0.1417756 l -0.172239,-0.248639 -0.227282,0.1448192 c 0,0 0.05182,0.097625 0.140249,0.2105034 -0.393555,0.2622019 -3.2910821,2.2011412 -3.4275508,2.3034306 -0.079322,0.059456 -0.1320108,0.1661845 -0.1436094,0.2327977 -0.01293,0.074055 0.00894,0.1647246 0.032151,0.2048719 -0.1174591,0.091472 -0.1296703,0.1326454 -0.1525803,0.2470213 -0.022909,0.1143748 0.097531,0.2653936 0.097531,0.2653936 0,0 -0.9567937,0.8440419 -1.0464753,0.9086549 -0.2944043,0.211953 -0.2912958,0.0091 -0.6146923,0.277391 -0.1726086,0.143175 -1.8427615,1.558117 -1.888523,1.588606 -0.045763,0.03049 -0.1406483,0.123626 -0.022938,0.213506 0.4741407,0.362083 0.9212274,0.943004 1.0291121,1.138015 0.1394674,0.252096 0.6635875,-0.600696 1.4263986,-1.518583 0.762811,-0.917888 1.5531243,-2.012678 1.5531243,-2.012678 0,0 0.1461922,-0.01161 0.2851676,0.08091 0.1419661,0.09455 0.2332657,0.260857 0.2332657,0.260857 0,0 0.194912,1.04627 0.1948551,1.244532 -5.68e-5,0.198262 0.1524771,0.109851 0.1524771,0.109851 L 9.4352176,11.80727 c 0.074261,-0.02738 0.099127,-0.07265 0.073748,-0.150415 -0.038888,-0.119138 -0.2885659,-0.52579 -0.2885222,-0.684398 4.43e-5,-0.158609 0.071896,-0.754901 0.071896,-0.754901 L 10.680416,9.2927478 10.298781,8.7232457 c 0,0 0.01882,0.018332 0.09605,-0.050777 0.97925,1.4697883 3.054866,1.8946043 3.58858,1.8357183 0.142021,-0.01565 0.131186,-0.100618 0.125106,-0.169249 -0.0061,-0.06863 -0.02925,-0.7909589 -0.04549,-0.9211696 -0.01623,-0.1301117 0.0082,-0.1992353 -0.203283,-0.1992728 -1.622883,-5.271e-4 -2.437766,-1.2920028 -2.437766,-1.2920028 0,0 0.515584,-0.3567231 0.578124,-0.3917833 0.06254,-0.035059 0.374645,0.00766 0.48042,-0.06239 0.425686,-0.2816471 0.361603,-0.5382539 0.678886,-0.7562518 0.145156,-0.099724 1.697753,-1.1311314 1.697753,-1.1311314 L 14.677277,5.3149431 18.345827,2.8773728 18.109543,2.5128076 c 0,0 -0.09305,0.068602 -0.14642,0.038085 z M 9.2943813,10.073897 8.9899456,9.6116459 9.9402582,8.985106 c -0.027965,0.039671 0.3399768,0.4210226 0.3399768,0.4210226 z"
     id="path2"
     style="stroke:#ffffff;stroke-width:0.0439905;fill:#ffffff;fill-opacity:1" /><path
     d="M 16.956891,1.5562034 C 16.903521,1.5256864 16.655042,1.1428166 16.655042,1.1428166 l -0.13263,-0.18914928 -0.184572,0.12957958 0.07307,0.4865256 0.0029,0.3812742 c 0,0 -0.676351,0.4722927 -0.973199,0.6616102 -0.463701,0.2957356 -0.892229,0.2178323 -0.892229,0.2178323 L 14.418785,2.6657494 12.920861,3.6505291 c 0,0 -0.03353,-0.070168 -0.07624,-0.054925 -0.04271,0.015239 -1.815207,1.2027773 -1.815207,1.2027773 l -0.06709,-0.041197 c 0,0 -0.297451,0.1981766 -0.367621,0.251535 -0.07017,0.053358 -0.09309,0.2073864 -0.146482,0.2561736 -0.05339,0.048788 -0.202879,0.1417755 -0.202879,0.1417755 L 10.073103,5.1580301 9.8458211,5.3028493 c 0,0 0.051822,0.097625 0.1402488,0.2105033 -0.3935546,0.2622024 -3.291082,2.2011417 -3.4275507,2.3034311 -0.079322,0.059456 -0.1320108,0.1661845 -0.1436094,0.2327977 -0.01293,0.074055 0.00894,0.1647246 0.032151,0.2048719 -0.1174591,0.091472 -0.1296703,0.1326454 -0.1525803,0.2470213 -0.022909,0.1143748 0.097531,0.2653936 0.097531,0.2653936 0,0 -0.9567937,0.8440416 -1.0464753,0.9086553 -0.2944043,0.2119521 -0.2912958,0.00907 -0.6146923,0.2773901 -0.1726086,0.1431754 -1.8427615,1.5581174 -1.888523,1.5886064 -0.045763,0.03049 -0.1406483,0.123626 -0.022938,0.213507 0.4741407,0.362082 0.9212274,0.943003 1.0291121,1.138014 0.1394674,0.252096 0.6635875,-0.600696 1.4263986,-1.518583 0.762811,-0.917888 1.5531243,-2.0126782 1.5531243,-2.0126782 0,0 0.1461922,-0.011609 0.2851676,0.080913 0.1419661,0.094547 0.2332657,0.260857 0.2332657,0.260857 0,0 0.194912,1.0462702 0.1948551,1.2445322 -5.68e-5,0.198262 0.1524771,0.109851 0.1524771,0.109851 l 0.7351659,-0.24533 c 0.074261,-0.02738 0.099127,-0.07265 0.073748,-0.150414 -0.038888,-0.119138 -0.2885656,-0.52579 -0.2885219,-0.6843983 4.43e-5,-0.1586089 0.071896,-0.7549003 0.071896,-0.7549003 L 9.6741478,8.2980819 9.2925132,7.7285798 c 0,0 0.018821,0.018332 0.096046,-0.050777 0.9792498,1.4697883 3.0548658,1.8946044 3.5885798,1.8357183 0.142021,-0.015649 0.131186,-0.1006183 0.125106,-0.1692491 -0.0061,-0.068634 -0.02925,-0.7909588 -0.04549,-0.9211695 -0.01623,-0.1301117 0.0082,-0.1992353 -0.203283,-0.1992728 -1.622883,-5.271e-4 -2.437766,-1.2920028 -2.437766,-1.2920028 0,0 0.515584,-0.3567231 0.578124,-0.3917833 0.06254,-0.035059 0.374645,0.00766 0.48042,-0.06239 0.425686,-0.2816471 0.361603,-0.5382539 0.678886,-0.7562518 0.145156,-0.099724 1.697753,-1.1311313 1.697753,-1.1311313 L 13.671005,4.3202773 17.339555,1.882707 17.103271,1.5181417 c 0,0 -0.09305,0.068602 -0.14642,0.038085 z M 8.2881133,9.079231 7.9836776,8.61698 8.9339902,7.9904401 c -0.027965,0.039671 0.3399764,0.4210226 0.3399764,0.4210226 z"
     id="path3020"
     style="stroke:#ffffff;stroke-width:0.0439905;fill:#ffffff;fill-opacity:1" /><path
     d="M 15.833169,0.63318342 C 15.779799,0.60266642 15.53132,0.21979668 15.53132,0.21979668 l -0.13263,-0.1891493 -0.184572,0.1295796 0.07307,0.48652554 0.0029,0.38127418 c 0,0 -0.676351,0.4722928 -0.973199,0.6616103 C 13.853188,1.9853726 13.42466,1.9074693 13.42466,1.9074693 L 13.295063,1.7427295 11.797139,2.7275091 c 0,0 -0.03353,-0.070168 -0.07624,-0.054925 -0.04271,0.015239 -1.8152071,1.2027773 -1.8152071,1.2027773 l -0.06709,-0.041197 c 0,0 -0.297451,0.1981766 -0.367621,0.251535 -0.07017,0.053358 -0.09309,0.2073864 -0.146482,0.2561736 -0.053393,0.048789 -0.202879,0.1417761 -0.202879,0.1417761 L 8.9493809,4.2350101 8.7220991,4.3798293 c 0,0 0.051822,0.097625 0.1402488,0.2105034 -0.3935546,0.2622024 -3.291082,2.2011417 -3.4275507,2.3034311 -0.079322,0.059456 -0.1320108,0.1661845 -0.1436094,0.2327977 -0.01293,0.074055 0.00894,0.1647246 0.032151,0.2048719 -0.1174591,0.091472 -0.1296703,0.1326454 -0.1525803,0.2470213 -0.022909,0.1143748 0.097531,0.2653936 0.097531,0.2653936 0,0 -0.9567937,0.8440416 -1.0464753,0.9086553 -0.2944043,0.2119521 -0.2912958,0.00907 -0.6146923,0.27739 -0.1726086,0.1431755 -1.8427615,1.5581174 -1.888523,1.5886054 -0.045763,0.03049 -0.1406483,0.123626 -0.022938,0.213507 0.4741407,0.362083 0.9212274,0.943004 1.0291121,1.138015 0.1394674,0.252096 0.6635875,-0.600696 1.4263986,-1.518583 0.762811,-0.9178879 1.5531243,-2.0126781 1.5531243,-2.0126781 0,0 0.1461922,-0.011609 0.2851676,0.080913 0.1419661,0.094547 0.2332657,0.2608569 0.2332657,0.2608569 0,0 0.194912,1.0462697 0.1948551,1.2445322 -5.68e-5,0.198262 0.1524771,0.109851 0.1524771,0.109851 L 7.3052273,9.8895833 c 0.074261,-0.02738 0.099127,-0.072651 0.073748,-0.1504144 C 7.3400874,9.620031 7.0904097,9.2133791 7.0904534,9.0547708 7.0904977,8.8961619 7.1623492,8.2998705 7.1623492,8.2998705 L 8.5504258,7.375062 8.1687912,6.8055599 c 0,0 0.018821,0.018332 0.096046,-0.050777 0.9792497,1.4697883 3.0548658,1.8946044 3.5885798,1.8357182 0.142021,-0.015649 0.131186,-0.1006183 0.125106,-0.1692491 -0.0061,-0.068634 -0.02925,-0.7909588 -0.04549,-0.9211694 C 11.916803,7.3699709 11.941233,7.3008473 11.72975,7.3008097 10.106867,7.3002827 9.2919839,6.008807 9.2919839,6.008807 c 0,0 0.515584,-0.3567231 0.578124,-0.3917834 0.06254,-0.035059 0.3746451,0.00766 0.4804201,-0.06239 0.425686,-0.281647 0.361603,-0.5382538 0.678886,-0.7562517 0.145156,-0.099724 1.697753,-1.1311314 1.697753,-1.1311314 l -0.179884,-0.2699932 3.66855,-2.43757028 -0.236284,-0.3645653 c 0,0 -0.09305,0.068602 -0.14642,0.038085 z M 7.1643913,8.1562111 6.8599556,7.6939601 7.8102682,7.0674202 c -0.027965,0.039671 0.3399764,0.4210225 0.3399764,0.4210225 z"
     id="path3"
     style="stroke:#ffffff;stroke-width:0.0439905;fill:#ffffff;fill-opacity:1" /><path
     d="m -0.03716609,5.80371 a 0.5,0.5 0 0 1 0.5,-0.5 H 1.9628339 a 0.5,0.5 0 0 1 0.485,0.379 l 0.405,1.621 H 14.462834 a 0.5,0.5 0 0 1 0.49,0.598 l -1,5 a 0.5,0.5 0 0 1 -0.465,0.401 l -9.3970001,0.472 0.287,1.529 h 8.5850001 a 0.5,0.5 0 0 1 0,1 H 3.9628339 a 0.5,0.5 0 0 1 -0.491,-0.408 l -1.499,-7.985 -0.4,-1.607 H 0.46283391 a 0.5,0.5 0 0 1 -0.5,-0.5 m 3.10199999,2.5 0.84,4.479 9.1440001,-0.459 0.804,-4.02 z m 1.898,8 a 2,2 0 1 0 0,4 2,2 0 0 0 0,-4 m 7.0000001,0 a 2,2 0 1 0 0,4 2,2 0 0 0 0,-4 m -7.0000001,1 a 1,1 0 1 1 0,2 1,1 0 0 1 0,-2 m 7.0000001,0 a 1,1 0 1 1 0,2 1,1 0 0 1 0,-2"
     id="path1"
     style="fill:#ffffff;fill-opacity:1" /></svg>
