<?xml version="1.0" encoding="UTF-8" standalone="no"?>
<!-- Created with Inkscape (http://www.inkscape.org/) -->

<svg
   width="470"
   height="150"
   viewBox="0 0 470 150"
   version="1.1"
   id="svg1"
   inkscape:version="1.3.2 (091e20e, 2023-11-25, custom)"
   sodipodi:docname="zekgunshop.svg"
   xmlns:inkscape="http://www.inkscape.org/namespaces/inkscape"
   xmlns:sodipodi="http://sodipodi.sourceforge.net/DTD/sodipodi-0.dtd"
   xmlns="http://www.w3.org/2000/svg"
   xmlns:svg="http://www.w3.org/2000/svg">
  <sodipodi:namedview
     id="namedview1"
     pagecolor="#000000"
     bordercolor="#000000"
     borderopacity="0.25"
     inkscape:showpageshadow="2"
     inkscape:pageopacity="0.0"
     inkscape:pagecheckerboard="0"
     inkscape:deskcolor="#d1d1d1"
     inkscape:document-units="px"
     inkscape:zoom="1.6816406"
     inkscape:cx="243.5122"
     inkscape:cy="188.80372"
     inkscape:window-width="1920"
     inkscape:window-height="1057"
     inkscape:window-x="-8"
     inkscape:window-y="-8"
     inkscape:window-maximized="1"
     inkscape:current-layer="layer4" />
  <defs
     id="defs1">
    <inkscape:path-effect
       effect="fillet_chamfer"
       id="path-effect28"
       is_visible="true"
       lpeversion="1"
       nodesatellites_param="F,0,0,1,0,0,0,1 @ F,0,0,1,0,0,0,1 @ F,0,0,1,0,0,0,1 @ F,0,0,1,0,0,0,1 @ F,0,0,1,0,0,0,1 @ F,0,0,1,0,0,0,1 @ F,0,0,1,0,0,0,1 @ F,0,0,1,0,0,0,1 @ F,0,0,1,0,0,0,1 @ F,0,0,1,0,0,0,1 @ F,0,1,1,0,1.0040445,0,1 @ F,0,0,1,0,1.0040445,0,1 @ F,0,0,1,0,0,0,1 @ F,0,0,1,0,0,0,1 @ F,0,0,1,0,0,0,1 @ F,0,0,1,0,0,0,1 @ F,0,0,1,0,0,0,1 @ F,0,0,1,0,0,0,1 @ F,0,0,1,0,0,0,1 @ F,0,0,1,0,0,0,1 @ F,0,0,1,0,0,0,1 @ F,0,0,1,0,0,0,1 @ F,0,0,1,0,0,0,1 @ F,0,0,1,0,0,0,1"
       radius="0"
       unit="px"
       method="auto"
       mode="F"
       chamfer_steps="1"
       flexible="false"
       use_knot_distance="true"
       apply_no_radius="true"
       apply_with_radius="true"
       only_selected="false"
       hide_knots="false" />
    <inkscape:path-effect
       effect="fillet_chamfer"
       id="path-effect27"
       is_visible="true"
       lpeversion="1"
       nodesatellites_param="F,0,0,1,0,1.4020797,0,1 @ F,0,0,1,0,0,0,1 @ F,0,1,1,0,0.4981107,0,1 @ F,0,0,1,0,0,0,1 @ F,0,0,1,0,0,0,1 @ F,0,0,1,0,0.4981107,0,1 @ F,0,0,1,0,0,0,1 @ F,0,0,1,0,1.4020797,0,1"
       radius="0"
       unit="px"
       method="auto"
       mode="F"
       chamfer_steps="1"
       flexible="false"
       use_knot_distance="true"
       apply_no_radius="true"
       apply_with_radius="true"
       only_selected="false"
       hide_knots="false" />
    <inkscape:path-effect
       effect="fillet_chamfer"
       id="path-effect11"
       is_visible="true"
       lpeversion="1"
       nodesatellites_param="F,0,0,1,0,0,0,1 @ F,0,0,1,0,0,0,1 @ F,0,0,1,0,1.3584995,0,1 @ F,0,0,1,0,1.0481196,0,1 @ F,0,0,1,0,0,0,1 @ F,0,0,1,0,0,0,1 @ F,0,1,1,0,1.0481196,0,1 @ F,0,0,1,0,1.3584995,0,1"
       radius="0"
       unit="px"
       method="auto"
       mode="F"
       chamfer_steps="1"
       flexible="false"
       use_knot_distance="true"
       apply_no_radius="true"
       apply_with_radius="true"
       only_selected="false"
       hide_knots="false" />
    <inkscape:path-effect
       effect="fillet_chamfer"
       id="path-effect9"
       is_visible="true"
       lpeversion="1"
       nodesatellites_param="F,0,0,1,0,0,0,1 @ F,0,0,1,0,0,0,1 @ F,0,0,1,0,1.3584995,0,1 @ F,0,0,1,0,1.0481196,0,1 @ F,0,0,1,0,0,0,1 @ F,0,0,1,0,0,0,1 @ F,0,1,1,0,1.0481196,0,1 @ F,0,0,1,0,1.3584995,0,1"
       radius="0"
       unit="px"
       method="auto"
       mode="F"
       chamfer_steps="1"
       flexible="false"
       use_knot_distance="true"
       apply_no_radius="true"
       apply_with_radius="true"
       only_selected="false"
       hide_knots="false" />
    <inkscape:path-effect
       effect="fillet_chamfer"
       id="path-effect26"
       is_visible="true"
       lpeversion="1"
       nodesatellites_param="F,0,0,1,0,2.0404064,0,1 @ F,0,0,1,0,0,0,1 @ F,0,0,1,0,0.61247852,0,1 @ F,0,0,1,0,1.506011,0,1 @ F,0,0,1,0,0.70575695,0,1 @ F,0,0,1,0,0,0,1 @ F,0,0,1,0,0,0,1 @ F,0,0,1,0,3.361415,0,1 @ F,0,0,1,0,0,0,1 @ F,0,0,1,0,1.4805997,0,1"
       radius="0"
       unit="px"
       method="auto"
       mode="F"
       chamfer_steps="1"
       flexible="false"
       use_knot_distance="true"
       apply_no_radius="true"
       apply_with_radius="true"
       only_selected="false"
       hide_knots="false" />
    <inkscape:path-effect
       effect="fillet_chamfer"
       id="path-effect24"
       is_visible="true"
       lpeversion="1"
       nodesatellites_param="F,0,0,1,0,0,0,1 @ F,0,0,1,0,0,0,1 @ F,0,0,1,0,0,0,1 @ F,0,0,1,0,0,0,1 @ F,0,0,1,0,0,0,1 @ F,0,0,1,0,0,0,1 @ F,0,0,1,0,0,0,1 @ F,0,0,1,0,0,0,1 @ F,0,0,1,0,0,0,1 @ F,0,0,1,0,0,0,1 @ F,0,0,1,0,0,0,1 @ F,0,0,1,0,0,0,1 @ F,0,0,1,0,0,0,1 @ F,0,0,1,0,0,0,1 @ F,0,0,1,0,0,0,1 @ F,0,0,1,0,0,0,1 @ F,0,0,1,0,0,0,1 @ F,0,0,1,0,0,0,1 @ F,0,0,1,0,0,0,1 @ F,0,0,1,0,0,0,1 @ F,0,0,1,0,0,0,1 @ F,0,0,1,0,0,0,1 @ F,0,0,1,0,0,0,1 @ F,0,0,1,0,0,0,1 @ F,0,0,1,0,0,0,1 @ F,0,0,1,0,0,0,1 @ F,0,0,1,0,0,0,1 @ F,0,0,1,0,0,0,1 | F,0,0,1,0,0,0,1 @ F,0,0,1,0,0,0,1 @ F,0,0,1,0,0,0,1 @ F,0,0,1,0,0,0,1 @ F,0,0,1,0,0,0,1 @ F,0,0,1,0,0,0,1 @ F,0,0,1,0,0,0,1 @ F,0,0,1,0,0,0,1 | F,0,0,1,0,0,0,1 @ F,0,0,1,0,0,0,1 @ F,0,0,1,0,0,0,1 @ F,0,0,1,0,0,0,1 @ F,0,0,1,0,0,0,1 @ F,0,0,1,0,0,0,1 @ F,0,0,1,0,0,0,1 @ F,0,0,1,0,0,0,1 @ F,0,0,1,0,0,0,1 @ F,0,0,1,0,0,0,1 @ F,0,0,1,0,0,0,1 @ F,0,0,1,0,0,0,1 @ F,0,0,1,0,0,0,1 @ F,0,0,1,0,0,0,1 @ F,0,0,1,0,0,0,1 @ F,0,0,1,0,0,0,1 @ F,0,0,1,0,0,0,1 @ F,0,0,1,0,0,0,1 @ F,0,0,1,0,0,0,1 @ F,0,0,1,0,0,0,1 | F,0,0,1,0,0,0,1 @ F,0,0,1,0,0,0,1 @ F,0,0,1,0,0,0,1 @ F,0,0,1,0,0,0,1 @ F,0,0,1,0,0,0,1 @ F,0,0,1,0,0,0,1 @ F,0,0,1,0,0,0,1 @ F,0,0,1,0,0,0,1 | F,0,0,1,0,0,0,1 @ F,0,0,1,0,0,0,1 @ F,0,0,1,0,0,0,1 @ F,0,0,1,0,0,0,1 @ F,0,0,1,0,0,0,1 @ F,0,0,1,0,0,0,1 @ F,0,0,1,0,0,0,1 @ F,0,0,1,0,0,0,1"
       radius="0"
       unit="px"
       method="auto"
       mode="F"
       chamfer_steps="1"
       flexible="false"
       use_knot_distance="true"
       apply_no_radius="true"
       apply_with_radius="true"
       only_selected="false"
       hide_knots="false" />
    <inkscape:path-effect
       effect="fillet_chamfer"
       id="path-effect8"
       is_visible="true"
       lpeversion="1"
       nodesatellites_param="F,0,0,1,0,0,0,1 @ F,0,0,1,0,0,0,1 @ F,0,0,1,0,0,0,1 @ F,0,0,1,0,0,0,1 @ F,0,0,1,0,0,0,1 @ F,0,0,1,0,0,0,1 @ F,0,0,1,0,0,0,1 @ F,0,0,1,0,0,0,1 @ F,0,0,1,0,0,0,1 @ F,0,0,1,0,0,0,1 @ F,0,0,1,0,0,0,1 @ F,0,0,1,0,0,0,1 @ F,0,0,1,0,0,0,1 @ F,0,0,1,0,0,0,1 @ F,0,0,1,0,0,0,1 @ F,0,0,1,0,0,0,1 @ F,0,0,1,0,0,0,1 @ F,0,0,1,0,0,0,1 @ F,0,0,1,0,0,0,1 @ F,0,0,1,0,0,0,1 @ F,0,0,1,0,0.71662732,0,1 @ F,0,0,1,0,0.8473926,0,1 @ F,0,0,1,0,1.074823,0,1 @ F,0,0,1,0,1.0497178,0,1"
       radius="0"
       unit="px"
       method="auto"
       mode="F"
       chamfer_steps="1"
       flexible="false"
       use_knot_distance="true"
       apply_no_radius="true"
       apply_with_radius="true"
       only_selected="false"
       hide_knots="false" />
    <inkscape:path-effect
       effect="fillet_chamfer"
       id="path-effect7"
       is_visible="true"
       lpeversion="1"
       nodesatellites_param="F,0,1,1,0,1.5277637,0,1 @ F,0,0,1,0,0.82055405,0,1 @ F,0,0,1,0,0,0,1 @ F,0,0,1,0,0,0,1 @ F,0,0,1,0,0.82055405,0,1 @ F,0,0,1,0,0,0,1 @ F,0,0,1,0,0,0,1 @ F,0,0,1,0,0,0,1 @ F,0,0,1,0,0,0,1 @ F,0,0,1,0,0.94172842,0,1 @ F,0,0,1,0,0,0,1"
       radius="0"
       unit="px"
       method="auto"
       mode="F"
       chamfer_steps="1"
       flexible="false"
       use_knot_distance="true"
       apply_no_radius="true"
       apply_with_radius="true"
       only_selected="false"
       hide_knots="false" />
    <inkscape:path-effect
       effect="fillet_chamfer"
       id="path-effect6"
       is_visible="true"
       lpeversion="1"
       nodesatellites_param="F,0,0,1,0,2.019617,0,1 @ F,0,1,1,0,2.019617,0,1 @ F,0,0,1,0,0,0,1 @ F,0,0,1,0,0,0,1 @ F,0,0,1,0,0,0,1 @ F,0,0,1,0,0,0,1 @ F,0,0,1,0,0,0,1 @ F,0,0,1,0,0,0,1 @ F,0,0,1,0,0,0,1 @ F,0,0,1,0,0,0,1 @ F,0,0,1,0,0,0,1 @ F,0,0,1,0,0,0,1 @ F,0,0,1,0,0,0,1 @ F,0,0,1,0,0,0,1 @ F,0,0,1,0,0,0,1 @ F,0,0,1,0,0,0,1 @ F,0,0,1,0,0,0,1 @ F,0,0,1,0,0,0,1"
       radius="0"
       unit="px"
       method="auto"
       mode="F"
       chamfer_steps="1"
       flexible="false"
       use_knot_distance="true"
       apply_no_radius="true"
       apply_with_radius="true"
       only_selected="false"
       hide_knots="false" />
    <inkscape:path-effect
       effect="fillet_chamfer"
       id="path-effect5"
       is_visible="true"
       lpeversion="1"
       nodesatellites_param="F,0,0,1,0,3.2860187,0,1 @ F,0,0,1,0,2.4177524,0,1 @ F,0,0,1,0,2.4383799,0,1 @ F,0,0,1,0,3.1700129,0,1 @ F,0,0,1,0,0.919336,0,1 @ F,0,0,1,0,2.4852538,0,1 @ F,0,0,1,0,3.4662782,0,1 @ F,0,0,1,0,1.4363076,0,1 @ F,0,0,1,0,1.2770346,0,1"
       radius="0"
       unit="px"
       method="auto"
       mode="F"
       chamfer_steps="1"
       flexible="false"
       use_knot_distance="true"
       apply_no_radius="true"
       apply_with_radius="true"
       only_selected="false"
       hide_knots="false" />
    <inkscape:path-effect
       effect="fillet_chamfer"
       id="path-effect2"
       is_visible="true"
       lpeversion="1"
       nodesatellites_param="F,0,0,1,0,0,0,1 @ F,0,0,1,0,0,0,1 @ F,0,0,1,0,0,0,1 @ F,0,0,1,0,0,0,1 @ F,0,0,1,0,0,0,1 @ F,0,0,1,0,0,0,1"
       radius="0"
       unit="px"
       method="auto"
       mode="F"
       chamfer_steps="1"
       flexible="false"
       use_knot_distance="true"
       apply_no_radius="true"
       apply_with_radius="true"
       only_selected="false"
       hide_knots="false" />
    <inkscape:path-effect
       effect="fillet_chamfer"
       id="path-effect1"
       is_visible="true"
       lpeversion="1"
       nodesatellites_param="F,0,0,1,0,0,0,1 @ F,0,0,1,0,0,0,1 @ F,0,0,1,0,0,0,1 @ F,0,0,1,0,0,0,1 @ F,0,0,1,0,0,0,1 @ F,0,0,1,0,0,0,1 @ F,0,0,1,0,0,0,1"
       radius="0"
       unit="px"
       method="auto"
       mode="F"
       chamfer_steps="1"
       flexible="false"
       use_knot_distance="true"
       apply_no_radius="true"
       apply_with_radius="true"
       only_selected="false"
       hide_knots="false" />
    <inkscape:path-effect
       effect="fillet_chamfer"
       id="path-effect23"
       is_visible="true"
       lpeversion="1"
       nodesatellites_param="F,0,0,1,0,0,0,1 @ F,0,0,1,0,0,0,1 @ F,0,0,1,0,0,0,1 @ F,0,0,1,0,0,0,1 @ F,0,0,1,0,0,0,1 @ F,0,0,1,0,0,0,1 @ F,0,0,1,0,0,0,1 @ F,0,0,1,0,0,0,1 | F,0,0,1,0,0,0,1 @ F,0,0,1,0,0,0,1 @ F,0,0,1,0,0,0,1 @ F,0,0,1,0,0,0,1 @ F,0,0,1,0,0,0,1 @ F,0,0,1,0,0,0,1 @ F,0,0,1,0,0,0,1 @ F,0,0,1,0,0,0,1 @ F,0,0,1,0,0,0,1 @ F,0,0,1,0,0,0,1 @ F,0,0,1,0,0,0,1 @ F,0,0,1,0,0,0,1 @ F,0,0,1,0,0,0,1 @ F,0,0,1,0,0,0,1 @ F,0,0,1,0,0,0,1 @ F,0,0,1,0,0,0,1 @ F,0,0,1,0,0,0,1 @ F,0,0,1,0,0,0,1 @ F,0,0,1,0,0,0,1 @ F,0,0,1,0,0,0,1 | F,0,0,1,0,0,0,1 @ F,0,0,1,0,0,0,1 @ F,0,0,1,0,0,0,1 @ F,0,0,1,0,0,0,1 @ F,0,0,1,0,0,0,1 @ F,0,0,1,0,0,0,1 @ F,0,0,1,0,0,0,1 @ F,0,0,1,0,0,0,1 | F,0,0,1,0,0,0,1 @ F,0,0,1,0,0,0,1 @ F,0,0,1,0,0,0,1 @ F,0,0,1,0,0,0,1 @ F,0,0,1,0,0,0,1 @ F,0,0,1,0,0,0,1 @ F,0,0,1,0,0,0,1 @ F,0,0,1,0,0,0,1"
       radius="0"
       unit="px"
       method="auto"
       mode="F"
       chamfer_steps="1"
       flexible="false"
       use_knot_distance="true"
       apply_no_radius="true"
       apply_with_radius="true"
       only_selected="false"
       hide_knots="false" />
    <inkscape:path-effect
       effect="fillet_chamfer"
       id="path-effect22"
       is_visible="true"
       lpeversion="1"
       nodesatellites_param="F,0,0,1,0,0.98839129,0,1 @ F,0,0,1,0,0,0,1 @ F,0,0,1,0,0,0,1 @ F,0,0,1,0,0,0,1 @ F,0,0,1,0,0,0,1 @ F,0,0,1,0,2.1473812,0,1 @ F,0,0,1,0,0,0,1 @ F,0,0,1,0,3.0526127,0,1 @ F,0,0,1,0,2.9609371,0,1 @ F,0,0,1,0,1.5663415,0,1 @ F,0,0,1,0,1.6224737,0,1"
       radius="0"
       unit="px"
       method="auto"
       mode="F"
       chamfer_steps="1"
       flexible="false"
       use_knot_distance="true"
       apply_no_radius="true"
       apply_with_radius="true"
       only_selected="false"
       hide_knots="false" />
    <inkscape:path-effect
       effect="fillet_chamfer"
       id="path-effect18"
       is_visible="true"
       lpeversion="1"
       nodesatellites_param="F,0,0,1,0,0,0,1 @ F,0,0,1,0,0,0,1 @ F,0,0,1,0,0,0,1 @ F,0,0,1,0,0,0,1 @ F,0,0,1,0,0,0,1 @ F,0,0,1,0,0,0,1 @ F,0,0,1,0,0,0,1 @ F,0,0,1,0,0,0,1 @ F,0,0,1,0,0,0,1 @ F,0,0,1,0,0,0,1 @ F,0,0,1,0,0,0,1 @ F,0,0,1,0,0,0,1"
       radius="0"
       unit="px"
       method="auto"
       mode="F"
       chamfer_steps="1"
       flexible="false"
       use_knot_distance="true"
       apply_no_radius="true"
       apply_with_radius="true"
       only_selected="false"
       hide_knots="false" />
    <inkscape:path-effect
       effect="fillet_chamfer"
       id="path-effect17"
       is_visible="true"
       lpeversion="1"
       nodesatellites_param="F,0,0,1,0,1.3828245,0,1 @ F,0,0,1,0,1.3828245,0,1 @ F,0,0,1,0,1.3828245,0,1 @ F,0,0,1,0,1.3828245,0,1"
       radius="0"
       unit="px"
       method="auto"
       mode="F"
       chamfer_steps="1"
       flexible="false"
       use_knot_distance="true"
       apply_no_radius="true"
       apply_with_radius="true"
       only_selected="false"
       hide_knots="false" />
    <inkscape:path-effect
       effect="fillet_chamfer"
       id="path-effect25"
       is_visible="true"
       lpeversion="1"
       nodesatellites_param="F,0,1,1,0,14.154356,0,1 @ F,0,1,1,0,14.154356,0,1 @ F,0,0,1,0,14.154356,0,1"
       radius="0"
       unit="px"
       method="auto"
       mode="F"
       chamfer_steps="1"
       flexible="false"
       use_knot_distance="true"
       apply_no_radius="true"
       apply_with_radius="true"
       only_selected="false"
       hide_knots="false" />
    <inkscape:path-effect
       effect="fillet_chamfer"
       id="path-effect21"
       is_visible="true"
       lpeversion="1"
       nodesatellites_param="F,0,0,1,0,0,0,1 @ F,0,0,1,0,0,0,1 @ F,0,0,1,0,0,0,1 @ F,0,1,1,0,4.692822,0,1 @ F,0,0,1,0,4.692822,0,1 @ F,0,0,1,0,1.0593179,0,1 @ F,0,0,1,0,2.1525472,0,1 @ F,0,0,1,0,3.2742163,0,1 @ F,0,0,1,0,6.9326015,0,1 @ F,0,0,1,0,3.4387329,0,1 @ F,0,0,1,0,0,0,1"
       radius="0"
       unit="px"
       method="auto"
       mode="F"
       chamfer_steps="1"
       flexible="false"
       use_knot_distance="true"
       apply_no_radius="true"
       apply_with_radius="true"
       only_selected="false"
       hide_knots="false" />
    <inkscape:path-effect
       effect="fillet_chamfer"
       id="path-effect20"
       is_visible="true"
       lpeversion="1"
       nodesatellites_param="F,0,0,1,0,0,0,1 @ F,0,0,1,0,0,0,1 @ F,0,0,1,0,0,0,1 @ F,0,0,1,0,16.206954,0,1 @ F,0,0,1,0,8.3459766,0,1 @ F,0,0,1,0,0,0,1 @ F,0,0,1,0,0,0,1 @ F,0,0,1,0,0,0,1"
       radius="0"
       unit="px"
       method="auto"
       mode="F"
       chamfer_steps="1"
       flexible="false"
       use_knot_distance="true"
       apply_no_radius="true"
       apply_with_radius="true"
       only_selected="false"
       hide_knots="false" />
    <inkscape:path-effect
       effect="fillet_chamfer"
       id="path-effect19"
       is_visible="true"
       lpeversion="1"
       nodesatellites_param="F,0,0,1,0,0,0,1 @ F,0,0,1,0,0,0,1 @ F,0,0,1,0,0,0,1 @ F,0,0,1,0,0,0,1 @ F,0,0,1,0,12.976834,0,1 @ F,0,0,1,0,0,0,1 @ F,0,0,1,0,0,0,1 @ F,0,0,1,0,0,0,1"
       radius="0"
       unit="px"
       method="auto"
       mode="F"
       chamfer_steps="1"
       flexible="false"
       use_knot_distance="true"
       apply_no_radius="true"
       apply_with_radius="true"
       only_selected="false"
       hide_knots="false" />
    <rect
       x="16.650408"
       y="99.307785"
       width="421.61209"
       height="222.99652"
       id="rect3" />
    <rect
       x="180.77583"
       y="159.96283"
       width="212.88734"
       height="72.548203"
       id="rect2" />
    <rect
       x="75.521484"
       y="171.85599"
       width="341.33334"
       height="137.36584"
       id="rect1" />
    <rect
       x="75.521484"
       y="171.85599"
       width="341.33334"
       height="137.36584"
       id="rect10" />
    <rect
       x="75.521484"
       y="171.85599"
       width="341.33334"
       height="137.36584"
       id="rect11" />
    <rect
       x="75.521484"
       y="171.85599"
       width="341.33334"
       height="137.36584"
       id="rect12" />
    <rect
       x="75.521484"
       y="171.85599"
       width="341.33334"
       height="137.36584"
       id="rect13" />
    <rect
       x="75.521484"
       y="171.85599"
       width="341.33334"
       height="137.36584"
       id="rect14" />
    <rect
       x="75.521484"
       y="171.85599"
       width="341.33334"
       height="137.36584"
       id="rect15" />
    <rect
       x="75.521484"
       y="171.85599"
       width="341.33334"
       height="137.36584"
       id="rect16" />
    <rect
       x="75.521484"
       y="171.85599"
       width="341.33334"
       height="137.36584"
       id="rect50" />
    <rect
       x="75.521484"
       y="171.85599"
       width="341.33334"
       height="137.36584"
       id="rect51" />
    <rect
       x="75.521484"
       y="171.85599"
       width="341.33334"
       height="137.36584"
       id="rect52" />
  </defs>
  <g
     inkscape:groupmode="layer"
     id="layer4"
     inkscape:label="Layer 4">
    <path
       id="text4"
       style="font-size:70.7157px;font-family:Rajdhani;-inkscape-font-specification:Rajdhani;text-align:justify;fill:#ffaa00;fill-opacity:1;stroke-width:4.71455;stroke-linecap:round;stroke-linejoin:round;stroke-miterlimit:11"
       d="m 144.73307,40.695053 c -1.75228,3e-5 -3.43351,0.697569 -4.67969,1.943359 l -9.50976,9.511719 c -1.24449,1.244876 -1.9455,2.94072 -1.94531,4.710937 v 43.658202 c -1.8e-4,1.82939 1.46644,3.31267 3.27539,3.3125 h 4.24414 c 1.82413,-6.6e-4 3.30141,-1.49706 3.30078,-3.3418 V 68.546615 c 5.9e-4,-1.244429 1.61346,-1.70813 2.26172,-0.65039 l 21.36718,34.863285 c 0.40779,0.6662 1.12759,1.07236 1.90235,1.07226 h 7.83984 c 1.4691,-1e-5 2.36809,-1.63195 1.59375,-2.89453 l -26.3164,-42.9375 c -1.08072,-1.761414 0.17287,-4.038062 2.22265,-4.037109 h 176.63672 c 1.0744,-5.73e-4 1.94379,-0.882211 1.94336,-1.96875 V 42.4431 c -3.3e-4,-0.966063 -0.7752,-1.748279 -1.73047,-1.748047 h -10.99609 c -0.53614,-1.31e-4 -0.97257,0.438273 -0.97266,0.980468 v 3.402344 c 3.3e-4,0.641475 -0.51217,1.16231 -1.14648,1.16211 H 174.86002 c -0.9296,8.7e-5 -1.81958,-0.385947 -2.45898,-1.06836 l -3.21289,-3.43164 c -0.62408,-0.666697 -1.4926,-1.044485 -2.40039,-1.044922 z m -75.331816,1.208984 c -1.037695,0 -1.873047,0.835355 -1.873047,1.873047 v 6.933594 c 0,1.037693 0.835352,1.873047 1.873047,1.873047 h 40.869966 c 1.03769,0 1.87305,-0.835354 1.87305,-1.873047 v -6.933594 c 0,-1.037692 -0.83536,-1.873047 -1.87305,-1.873047 z m -49.615234,0.07617 c -1.341023,0 -2.009766,0.670697 -2.009766,2.011719 v 7.279297 c 0,1.341021 0.668743,2.011718 2.009766,2.011718 h 22.892578 v 0.382813 L 17.297739,91.118881 c -0.83016,1.02173 -1.246094,2.586041 -1.246094,4.693359 v 5.7461 c 0,1.34102 0.668744,2.01171 2.009765,2.01171 h 36.6875 c 1.277164,0 1.917969,-0.73243 1.917969,-2.20117 v -7.281249 c 0,-1.213307 -0.640805,-1.820313 -1.917969,-1.820313 H 30.418832 v -0.382812 l 23.84961,-34.673828 c 0.957875,-1.404881 1.4375,-3.064724 1.4375,-4.980469 v -8.238281 c 0,-1.341022 -0.638852,-2.011719 -1.916016,-2.011719 z M 69.401254,66.87474 c -1.037695,0 -1.873047,0.835355 -1.873047,1.873047 v 6.931641 c 0,1.037693 0.835352,1.873047 1.873047,1.873047 h 48.281036 c 1.03769,0 1.87305,-0.835354 1.87305,-1.873047 v -6.931641 c 0,-1.037692 -0.83536,-1.873047 -1.87305,-1.873047 z m 0,26.179688 c -1.037695,0 -1.873047,0.835352 -1.873047,1.873047 v 6.931645 c 0,1.03769 0.835352,1.87304 1.873047,1.87304 h 48.281036 c 1.03769,0 1.87305,-0.83535 1.87305,-1.87304 v -6.931645 c 0,-1.037695 -0.83536,-1.873047 -1.87305,-1.873047 z"
       sodipodi:nodetypes="cccccccccccccccccccccccccccccssssssssssssscccssssssscccssssssssssssssssssssss" />
    <path
       d="m 193.606,102.11699 h -2.65319 c -4.12717,0 -7.26275,-1.1256 -9.40673,-3.376775 -2.09039,-2.251185 -3.13558,-5.493961 -3.13558,-9.72833 V 76.067579 c 0,-4.234371 1.15239,-7.477148 3.45717,-9.72833 2.3048,-2.251184 5.57436,-3.376777 9.80874,-3.376777 h 18.57225 c 1.1792,0 1.76881,0.562798 1.76881,1.688389 v 39.636919 c 0,4.18077 -1.1792,7.39674 -3.53758,9.64793 -2.30478,2.25118 -5.54757,3.37677 -9.72833,3.37677 h -18.14961 c -0.64321,0 -1.09881,-0.134 -1.3668,-0.40199 -0.21439,-0.2144 -0.32159,-0.6164 -0.32159,-1.206 v -5.54755 c 0,-1.1256 0.5628,-1.68839 1.68839,-1.68839 h 16.46122 c 1.71518,0 2.92117,-0.3752 3.61798,-1.12559 0.75039,-0.6968 1.12558,-1.87599 1.12558,-3.53758 v -6.110355 h -0.32159 c -0.58959,1.44719 -1.63479,2.545975 -3.13559,3.296365 -1.50078,0.75041 -3.08197,1.1256 -4.74355,1.1256 z m 8.20073,-14.954293 V 72.690803 c 0,-0.589596 -0.32159,-0.884394 -0.96478,-0.884394 h -7.55755 c -1.71519,0 -2.92118,0.375197 -3.61797,1.125591 -0.6968,0.696796 -1.0452,1.902788 -1.0452,3.617974 v 11.979514 c 0,1.715186 0.3484,2.921178 1.0452,3.617974 0.69679,0.696795 1.90278,1.045192 3.61797,1.045192 h 2.97478 c 3.69837,0 5.54755,-2.009985 5.54755,-6.029957 z m 33.84808,16.803483 h -2.65317 c -4.12717,0 -7.26276,-1.12559 -9.40675,-3.37678 -2.09037,-2.251185 -3.13557,-5.49396 -3.13557,-9.728329 v -26.21021 c 0,-1.125591 0.5628,-1.688389 1.6884,-1.688389 h 6.83395 c 1.12557,0 1.68837,0.562798 1.68837,1.688389 v 25.727813 c 0,1.715189 0.3484,2.947979 1.0452,3.698374 0.7504,0.696794 1.95639,1.045191 3.61798,1.045191 h 2.97478 c 3.69837,0 5.54756,-2.036785 5.54756,-6.110354 V 64.650861 c 0,-1.125591 0.56279,-1.688389 1.68839,-1.688389 h 6.75355 c 1.17918,0 1.76879,0.562798 1.76879,1.688389 v 37.626929 c 0,1.1256 -0.58961,1.68839 -1.76879,1.68839 h -6.75355 c -1.1256,0 -1.68839,-0.56279 -1.68839,-1.68839 v -2.653185 h -0.32161 c -0.58959,1.447185 -1.63479,2.545985 -3.13557,3.296385 -1.50078,0.69679 -3.08197,1.04519 -4.74357,1.04519 z m 35.77781,0 h -6.83396 c -1.12559,0 -1.68839,-0.56279 -1.68839,-1.68839 V 64.650861 c 0,-1.125591 0.5628,-1.688389 1.68839,-1.688389 h 6.83396 c 1.12558,0 1.68838,0.562798 1.68838,1.688389 v 2.65318 h 0.3216 c 1.17919,-2.89438 3.80557,-4.341569 7.87915,-4.341569 h 2.57277 c 8.41515,0 12.62271,4.368368 12.62271,13.105107 v 26.210211 c 0,1.1256 -0.5896,1.68839 -1.76878,1.68839 h -6.75355 c -1.12559,0 -1.68839,-0.56279 -1.68839,-1.68839 V 76.549974 c 0,-1.715186 -0.3752,-2.921178 -1.12559,-3.617974 -0.6968,-0.750394 -1.9028,-1.125591 -3.61798,-1.125591 h -2.89436 c -3.69838,0 -5.54758,2.036785 -5.54758,6.110356 v 24.361025 c 0,1.1256 -0.5628,1.68839 -1.68838,1.68839 z m 49.0437,0 h -15.27588 c -1.072,0 -1.608,-0.56279 -1.608,-1.68839 v -5.145565 c 0,-0.589595 0.10715,-0.991592 0.3216,-1.205991 0.2144,-0.267998 0.64319,-0.401998 1.2864,-0.401998 h 13.42669 c 2.62639,0 3.93958,-0.803994 3.93958,-2.411982 v -0.401997 c 0,-1.286391 -1.0988,-2.519181 -3.29638,-3.698372 l -7.95955,-4.421968 c -2.73358,-1.39359 -4.74356,-2.89438 -6.02995,-4.502367 -1.2864,-1.607989 -1.92959,-3.671575 -1.92959,-6.190756 0,-3.751973 0.99159,-6.512353 2.97478,-8.281141 1.98318,-1.768787 5.09196,-2.653181 9.32633,-2.653181 h 13.42671 c 1.072,0 1.60799,0.562798 1.60799,1.688389 v 5.225961 c 0,0.589598 -0.10714,1.018394 -0.3216,1.286393 -0.21439,0.214397 -0.64319,0.321596 -1.28639,0.321596 h -11.17551 c -2.62639,0 -3.93958,0.669995 -3.93958,2.009985 v 0.401998 c 0,1.179191 1.1524,2.385183 3.45717,3.617973 l 8.12034,4.823966 c 2.78718,1.500789 4.74357,3.055179 5.86916,4.663167 1.1256,1.554388 1.68838,3.617974 1.68838,6.190754 0,7.182346 -4.20756,10.773526 -12.6227,10.773526 z m 28.22017,0 h -6.83395 c -1.1256,0 -1.6884,-0.56279 -1.6884,-1.68839 V 42.229379 c 0,-1.125591 0.5628,-1.688387 1.6884,-1.688387 h 6.83395 c 1.12558,0 1.68838,0.562796 1.68838,1.688387 v 25.074662 h 0.3216 c 1.17919,-2.89438 3.80558,-4.341569 7.87915,-4.341569 h 2.57277 c 8.41515,0 12.62272,4.368368 12.62272,13.105107 v 26.210211 c 0,1.1256 -0.58961,1.68839 -1.76879,1.68839 h -6.75355 c -1.12559,0 -1.68838,-0.56279 -1.68838,-1.68839 V 76.549974 c 0,-1.715186 -0.37521,-2.921178 -1.1256,-3.617974 -0.6968,-0.750394 -1.9028,-1.125591 -3.61798,-1.125591 h -2.89438 c -3.69837,0 -5.54756,2.036785 -5.54756,6.110356 v 24.361025 c 0,1.1256 -0.5628,1.68839 -1.68838,1.68839 z m 53.14407,0 h -7.15555 c -4.23437,0 -7.50396,-1.12559 -9.80873,-3.37678 -2.30477,-2.251185 -3.45717,-5.49396 -3.45717,-9.728329 V 76.067579 c 0,-4.234371 1.1524,-7.477148 3.45717,-9.72833 2.30477,-2.251184 5.57436,-3.376777 9.80873,-3.376777 h 7.15555 c 4.18077,0 7.42354,1.152393 9.72834,3.457176 2.35837,2.251184 3.53757,5.46716 3.53757,9.647931 v 14.793492 c 0,4.180769 -1.1792,7.423544 -3.53757,9.728329 -2.3048,2.25119 -5.54757,3.37678 -9.72834,3.37678 z m -5.62796,-8.76354 h 4.10037 c 1.71518,0 2.92119,-0.348398 3.61797,-1.045193 0.75039,-0.696796 1.1256,-1.902787 1.1256,-3.617973 V 76.389176 c 0,-1.715188 -0.37521,-2.921179 -1.1256,-3.617974 -0.69678,-0.696796 -1.90279,-1.045193 -3.61797,-1.045193 h -4.10037 c -1.71518,0 -2.92117,0.348397 -3.61798,1.045193 -0.69679,0.696795 -1.0452,1.902786 -1.0452,3.617974 v 14.150298 c 0,1.715186 0.34841,2.921177 1.0452,3.617973 0.69681,0.696795 1.9028,1.045193 3.61798,1.045193 z m 35.45621,19.69786 h -6.83395 c -1.1256,0 -1.6884,-0.536 -1.6884,-1.60799 V 64.650861 c 0,-1.125591 0.5628,-1.688389 1.6884,-1.688389 h 6.83395 c 1.12558,0 1.68839,0.562798 1.68839,1.688389 v 2.65318 h 0.32159 c 0.58959,-1.447189 1.63479,-2.519181 3.13559,-3.215976 1.50078,-0.750396 3.08197,-1.125593 4.74355,-1.125593 h 3.29638 c 4.12718,0 7.23595,1.125593 9.32634,3.376777 2.14397,2.251182 3.21596,5.493959 3.21596,9.72833 v 14.793492 c 0,4.234369 -1.07199,7.477144 -3.21596,9.728329 -2.09039,2.25119 -5.19916,3.37678 -9.32634,3.37678 h -3.29638 c -1.66158,0 -3.24277,-0.3484 -4.74355,-1.04519 -1.5008,-0.7504 -2.546,-1.8492 -3.13559,-3.296385 h -0.32159 v 13.667905 c 0,1.07199 -0.56281,1.60799 -1.68839,1.60799 z m 7.23594,-19.778261 h 3.53758 c 1.71519,0 2.92118,-0.348397 3.61798,-1.045191 0.75039,-0.750395 1.12558,-1.983185 1.12558,-3.698374 v -13.8287 c 0,-1.715186 -0.37519,-2.921178 -1.12558,-3.617974 -0.6968,-0.750394 -1.90279,-1.125591 -3.61798,-1.125591 h -3.53758 c -3.69837,0 -5.54755,2.036785 -5.54755,6.110356 v 11.09512 c 0,4.073569 1.84918,6.110354 5.54755,6.110354 z"
       id="text32"
       style="font-size:54.2998px;font-family:Rajdhani;-inkscape-font-specification:Rajdhani;text-align:justify;fill:#cccccc;stroke-width:5.312;stroke-linecap:round;stroke-linejoin:round;stroke-miterlimit:11;fill-opacity:1"
       aria-label="gunshop"
       sodipodi:nodetypes="sscssssssscssssssscsccsssssscsssssssscsssssscssssssssssscccssssssssccsssssssscssssssssscssssccssssssscsssscccsssssssssccsssssssscssssssssssssscsscssscsscsssssssssssssscccsscsscsscccssssssscsssss" />
    <path
       id="rect4"
       style="fill:#cccccc;fill-opacity:1;stroke-width:1.07845;stroke-linecap:round;stroke-linejoin:round;stroke-miterlimit:11"
       d="m 186.11441,21.085678 c -1.17798,1.81e-4 -2.33159,0.335496 -3.32617,0.966797 l -3.52149,2.236328 c -0.76793,0.487518 -1.65878,0.746303 -2.56836,0.746094 h -3.81618 l -1.00348,1.609374 H 139.3312 c -0.34144,-0.08986 -0.66784,-0.229371 -0.96875,-0.414062 l -2.65039,-1.683594 c -0.74941,-0.475087 -1.61855,-0.72709 -2.50586,-0.726562 h -5.35715 a 1.0040445,1.0040445 135 0 0 -1.00404,1.004044 v 14.642301 a 1.0040445,1.0040445 45 0 0 1.00404,1.004045 h 5.35715 c 0.8875,-5.6e-5 1.75666,-0.25274 2.50586,-0.728515 l 2.65039,-1.683594 c 0.2986,-0.183314 0.62231,-0.322142 0.96094,-0.412109 h 32.55534 l 1.00348,1.607422 h 3.81618 c 0.90958,-2.1e-4 1.80043,0.258575 2.56836,0.746093 l 3.52149,2.236328 c 0.99458,0.631301 2.14819,0.966616 3.32617,0.966797 h 13.89453 V 21.085678 Z"
       sodipodi:nodetypes="ccccccccccccccccccccccccc"
       inkscape:path-effect="#path-effect28"
       inkscape:original-d="m 186.11441,21.085678 c -1.17798,1.81e-4 -2.33159,0.335496 -3.32617,0.966797 l -3.52149,2.236328 c -0.76793,0.487518 -1.65878,0.746303 -2.56836,0.746094 h -3.81618 l -1.00348,1.609374 H 139.3312 c -0.34144,-0.08986 -0.66784,-0.229371 -0.96875,-0.414062 l -2.65039,-1.683594 c -0.74941,-0.475087 -1.61855,-0.72709 -2.50586,-0.726562 h -6.36119 v 16.65039 h 6.36119 c 0.8875,-5.6e-5 1.75666,-0.25274 2.50586,-0.728515 l 2.65039,-1.683594 c 0.2986,-0.183314 0.62231,-0.322142 0.96094,-0.412109 h 32.55534 l 1.00348,1.607422 h 3.81618 c 0.90958,-2.1e-4 1.80043,0.258575 2.56836,0.746093 l 3.52149,2.236328 c 0.99458,0.631301 2.14819,0.966616 3.32617,0.966797 h 13.89453 V 21.085678 Z"
       transform="translate(0,-2.5078121)" />
    <rect
       style="fill:#cccccc;fill-opacity:1;stroke-width:2.30043;stroke-linecap:round;stroke-linejoin:round;stroke-miterlimit:11"
       id="rect27"
       width="4.4151058"
       height="22.117188"
       x="201.46548"
       y="18.577866" />
  </g>
</svg>
